# xmcd
#
# Track frame offsets:
#	182
#	10607
#	23175
#	32850
#	46447
#	62135
#	73737
#	89310
#	102047
#	114175
#	130620
#	141902
#	157167
#	168945
#	183972
#	192982
#	203082
#	215535
#	229065
#
# Disc length: 3207 seconds
#
# Revision: 1
# Processed by: cddbd v1.5.2PL0 Copyright (c) Steve Scherf et al.
# Submitted via: audiograbber 1.83.01
#
DISCID=030c8513
DTITLE=Various Artist - Bea and Baby Records presents: The Best Of Chicago Blues Vol.2
DYEAR=1900
DGENRE=Blues
TTITLE0=Little Mack Simmons - Mother In Law
TTITLE1=Little Mack Simmons - Help Me
TTITLE2=Little Mack Simmons - Trouble No More
TTITLE3=Little Mack Simmons - I'm Tore Down
TTITLE4=Sunnyland Slim - Done You Wrong
TTITLE5=Sunnyland Slim - Got That Jive
TTITLE6=Sunnyland Slim - Little Girl
TTITLE7=Eddie Boyd - You Got To Reap
TTITLE8=Eddie Boyd - Come Home
TTITLE9=Andrew McMahon - Lost In The Jungle
TTITLE10=Andrew McMahon - Worried All The Time
TTITLE11=Andrew McMahon - Potato Diggin' Man
TTITLE12=Arelean Brown - Hello Baby
TTITLE13=Arelean Brown - I Love My Man
TTITLE14=L.C. McKinley - Nit Wit
TTITLE15=Detroit Jr. - Money Tree
TTITLE16=Detroit Jr. - So Unkind
TTITLE17=Clyde Lasley - Santa Claus Home Drunk
TTITLE18=Lee Jackson - The Christmas Song
EXTD=
EXTT0=
EXTT1=
EXTT2=
EXTT3=
EXTT4=
EXTT5=
EXTT6=
EXTT7=
EXTT8=
EXTT9=
EXTT10=
EXTT11=
EXTT12=
EXTT13=
EXTT14=
EXTT15=
EXTT16=
EXTT17=
EXTT18=
PLAYORDER=
